<svg width="21" height="17" viewBox="0 0 21 17" fill="none" xmlns="http://www.w3.org/2000/svg">
<path d="M6.36703 16.0439C13.9502 16.0439 18.0995 9.85242 18.0995 4.50526C18.0995 4.29419 18.0995 4.15349 18.0995 4.01277C18.8865 3.44992 19.6019 2.74633 20.1742 1.90204C19.3872 2.25383 18.6003 2.46491 17.8134 2.53527C18.6719 2.04277 19.3157 1.19847 19.6019 0.283824C18.8149 0.776325 17.8849 1.05776 16.9549 1.26883C15.381 -0.349386 12.8056 -0.419745 11.0886 1.05776C10.0156 2.04276 9.58631 3.52026 9.87247 4.92741C6.58165 4.7867 3.4339 3.23884 1.35925 0.705972C0.286159 2.53526 0.786936 4.92742 2.64697 6.12349C2.00311 6.12349 1.35925 5.91241 0.786936 5.63098C0.786936 5.63098 0.786936 5.63099 0.786936 5.70135C0.786936 7.67135 2.14619 9.28956 4.07776 9.7117C3.50544 9.85242 2.86159 9.85242 2.28927 9.7117C2.86159 11.4003 4.36392 12.526 6.15241 12.526C4.72162 13.6517 2.86159 14.2849 1.00156 14.2849C0.643857 14.2849 0.357698 14.2849 0 14.2146C1.86003 15.4107 4.07776 16.0439 6.36703 16.0439Z" fill="#D1D1D1"/>
</svg>
