<svg width="100" height="100" viewBox="0 0 100 100" fill="none" xmlns="http://www.w3.org/2000/svg">
<circle cx="50" cy="50" r="49" stroke="#8F643C" stroke-width="2"/>
<path d="M24.0139 39.4401C23.9261 38.6158 24.264 37.9288 24.738 37.2805C25.5103 36.2285 26.4231 35.3011 27.4017 34.4424C28.275 33.6781 29.1746 32.9439 30.0786 32.214C30.6315 31.7675 31.2196 31.3596 31.9217 31.1621C32.8389 30.9002 33.7253 30.9302 34.5591 31.4411C34.9541 31.6859 35.2174 32.0465 35.4675 32.4201C37.0122 34.7 38.5569 36.9756 40.1016 39.2555C40.4922 39.8351 40.8608 40.432 41.2689 40.9987C41.8438 41.7973 41.9272 42.656 41.6639 43.5706C41.4708 44.2404 41.1285 44.8415 40.7818 45.4426C40.1674 46.5117 39.5487 47.5765 38.9299 48.637C38.8685 48.7401 38.8729 48.8088 38.9431 48.9075C39.6452 49.9337 40.4571 50.8783 41.2865 51.8014C42.7083 53.3858 44.2179 54.8928 45.7582 56.3698C47.281 57.8297 48.8388 59.2551 50.5196 60.5432C50.9101 60.8438 51.3226 61.1186 51.7264 61.4062C51.801 61.4577 51.8624 61.4578 51.9458 61.4105C53.2974 60.6634 54.6446 59.9121 56.005 59.1778C56.5711 58.873 57.1811 58.6669 57.8349 58.6025C58.4932 58.5381 59.0988 58.6712 59.6473 59.0276C62.728 61.0241 65.8086 63.0206 68.8848 65.0214C69.5606 65.4637 69.9029 66.1077 69.9819 66.8935C70.0829 67.8724 69.7537 68.7311 69.1832 69.5083C68.4153 70.5473 67.5683 71.5263 66.6906 72.4751C65.9841 73.2351 65.26 73.9736 64.4526 74.6262C64.0313 74.9654 63.5881 75.2789 63.1317 75.5794C62.5173 75.9873 61.8196 76.0345 61.0955 75.983C58.3528 75.7855 55.8339 74.871 53.4071 73.6602C51.3972 72.6598 49.5146 71.4661 47.6935 70.1695C46.2936 69.1734 44.9332 68.1257 43.6298 67.0137C42.5635 66.1034 41.5059 65.1846 40.4834 64.2314C39.2503 63.085 38.0435 61.9129 36.8542 60.7278C35.4061 59.2852 34.0237 57.7824 32.6985 56.2281C30.8554 54.0727 29.1395 51.8272 27.6562 49.4185C26.546 47.6409 25.5849 45.7861 24.9004 43.8024C24.5054 42.6475 24.2158 41.471 24.0797 40.2602C24.049 39.9854 24.0358 39.7149 24.0139 39.4401ZM61.3676 73.9564C61.4378 73.9564 61.5124 73.965 61.5826 73.9564C61.6572 73.9479 61.7318 73.9264 61.802 73.9006C62.5129 73.6172 63.0746 73.1278 63.6232 72.6254C64.9792 71.3803 66.1816 70.0063 67.3094 68.568C67.5683 68.2374 67.8316 67.8982 67.8667 67.4602C67.8974 67.1167 67.858 66.8076 67.5113 66.58C64.5798 64.6908 61.6572 62.7888 58.7346 60.8824C58.4625 60.7064 58.186 60.672 57.892 60.7192C57.655 60.7536 57.4137 60.8051 57.203 60.9082C56.6457 61.1787 56.0972 61.4706 55.553 61.7669C54.3155 62.4496 53.0824 63.1408 51.8448 63.8235C51.8054 63.845 51.7264 63.845 51.6869 63.8235C51.4718 63.7076 51.2568 63.5874 51.0549 63.4543C49.7384 62.5956 48.5273 61.6123 47.338 60.5947C45.8547 59.3281 44.4373 57.9928 43.0506 56.6274C41.4444 55.0431 39.8954 53.4072 38.456 51.6726C37.7495 50.8182 37.0561 49.9552 36.4988 48.9977C36.4329 48.8861 36.4417 48.8131 36.4988 48.71C37.3194 47.2974 38.14 45.8805 38.9563 44.4637C39.2371 43.9742 39.5443 43.4933 39.6321 42.9223C39.6803 42.6174 39.6803 42.3383 39.4829 42.0506C38.6666 40.8699 37.8855 39.672 37.0824 38.487C35.9283 36.7824 34.7654 35.0864 33.6156 33.3819C33.484 33.1844 33.2909 33.1414 33.089 33.1114C32.6151 33.047 32.207 33.2187 31.8383 33.4892C30.298 34.6141 28.8455 35.8378 27.5246 37.2032C27.0945 37.6454 26.6732 38.1005 26.3748 38.6458C26.2695 38.839 26.1379 39.0537 26.1335 39.2641C26.1115 39.9597 26.2169 40.6509 26.3661 41.3336C26.6864 42.7934 27.235 44.176 27.8844 45.5242C28.885 47.6023 30.1357 49.5387 31.5048 51.4021C33.3084 53.8538 35.2964 56.1637 37.4291 58.3492C38.8773 59.8305 40.3693 61.2688 41.8657 62.7029C43.2173 63.9953 44.6479 65.2061 46.1093 66.3825C48.2376 68.0914 50.4581 69.68 52.8454 71.0325C54.4428 71.9384 56.0972 72.7199 57.8525 73.2866C58.9847 73.6559 60.1564 73.9092 61.3676 73.9564Z" fill="white"/>
<path d="M67.9001 54.5314C67.1936 54.5314 66.5046 54.5314 65.8025 54.5314C65.8025 54.4584 65.8025 54.3983 65.8025 54.3339C65.8025 51.2683 65.8376 48.2027 65.7893 45.1413C65.7586 43.0718 64.8897 41.3801 63.0992 40.2037C62.2742 39.6584 61.3483 39.3578 60.3609 39.2591C60.001 39.2247 59.6412 39.2076 59.277 39.2033C56.644 39.199 54.0109 39.199 51.3779 39.199C51.3165 39.199 51.2507 39.199 51.1453 39.199C51.4174 39.4437 51.6588 39.6627 51.9001 39.8774C53.0543 40.8992 54.2084 41.9211 55.3626 42.9473C55.6127 43.1706 55.8716 43.3895 56.113 43.6214C56.5035 43.9949 56.5255 44.5917 56.1744 44.991C55.8014 45.4118 55.2002 45.4977 54.7614 45.1499C54.3488 44.8236 53.9627 44.4629 53.5721 44.1151C52.339 43.0246 51.1102 41.934 49.8771 40.8434C48.9073 39.9847 47.9331 39.1217 46.9632 38.263C46.9369 38.2415 46.9106 38.22 46.8711 38.19C47.1958 37.9023 47.5118 37.6189 47.8234 37.3398C48.6923 36.5713 49.5612 35.7984 50.43 35.0299C51.571 34.0252 52.7032 33.0205 53.8398 32.0158C54.1031 31.7839 54.3664 31.5478 54.6297 31.3116C54.9501 31.0282 55.3143 30.9381 55.7224 31.0798C56.1305 31.2214 56.3631 31.522 56.407 31.9428C56.4421 32.2562 56.3412 32.5396 56.0998 32.7586C55.5469 33.2609 54.9852 33.759 54.4235 34.257C53.6774 34.9182 52.927 35.5795 52.181 36.245C51.8475 36.5412 51.5184 36.8332 51.1453 37.1638C51.2507 37.1638 51.3121 37.1638 51.3735 37.1638C54.0812 37.1638 56.7932 37.1638 59.5008 37.1638C60.927 37.1638 62.2786 37.4686 63.5337 38.1342C65.3943 39.1174 66.6845 40.5901 67.4086 42.5351C67.7553 43.4711 67.9001 44.4415 67.9001 45.4333C67.9001 48.4045 67.9001 51.3799 67.9001 54.3511C67.9001 54.4069 67.9001 54.467 67.9001 54.5314Z" fill="white"/>
</svg>
